<svg xmlns="http://www.w3.org/2000/svg" viewBox="0 0 212.7 212.7"><path d="M312.6,481.8H249.2l-3.6-.5c-10-1.8-17-7.4-20.9-16.7a28,28,0,0,1-2-11.1V397.3c0-2.2,0-4.5.1-6.7a26.4,26.4,0,0,1,6.4-15.8c5.7-6.5,13-9.5,21.6-9.5H311a28.1,28.1,0,0,1,5,.4,27,27,0,0,1,22.6,21.7l.6,5.1v62c-.2,1.3-.3,2.6-.5,3.9a26.7,26.7,0,0,1-22.8,22.9ZM231,423.4h.1c0,10.5-.2,20.9,0,31.4A18.5,18.5,0,0,0,250,473.3h61.8a25.6,25.6,0,0,0,3.9-.3c8.9-1.8,15-9.3,15-18.7q.2-30.7,0-61.5c0-11-8.1-19.1-19.1-19.2H250.1a18.3,18.3,0,0,0-8,1.7c-7.3,3.6-11,9.5-11,17.6C231,403.1,231,413.2,231,423.4Z" transform="translate(-174.6 -317.2)" style="fill:#fff"/><path d="M249.7,425.6a31.2,31.2,0,1,1,31.2,31.1A31.3,31.3,0,0,1,249.7,425.6Zm31.2-22.9a22.9,22.9,0,1,0,22.8,22.8A22.9,22.9,0,0,0,280.9,402.7Z" transform="translate(-174.6 -317.2)" style="fill:#fff"/><path d="M322.4,390.3a8.2,8.2,0,0,1-8.3,8.2,8.3,8.3,0,0,1-8.3-8.3,8.3,8.3,0,0,1,16.6.1Z" transform="translate(-174.6 -317.2)" style="fill:#fff"/><circle cx="106.4" cy="106.4" r="103.4" style="fill:none;stroke:#fff;stroke-miterlimit:10;stroke-width:6px"/></svg>